<svg width="37" height="37" viewBox="0 0 37 37" fill="none" xmlns="http://www.w3.org/2000/svg">
<path d="M25.3804 13.6376L23.7 24.3969C23.6768 24.5452 23.6172 24.6855 23.5264 24.8051C23.4356 24.9247 23.3166 25.0198 23.1799 25.082C23.0433 25.1442 22.8934 25.1715 22.7436 25.1615C22.5938 25.1514 22.4488 25.1043 22.3217 25.0244L16.6947 21.4986C16.5777 21.4254 16.479 21.3265 16.406 21.2094C16.3331 21.0923 16.2878 20.9601 16.2737 20.8229C16.2596 20.6856 16.277 20.547 16.3245 20.4175C16.3721 20.288 16.4486 20.1711 16.5482 20.0756L21.2194 15.5986C21.2719 15.5493 21.2102 15.4676 21.1485 15.5046L14.3775 19.5561C13.9751 19.7981 13.4971 19.8821 13.0363 19.7919L10.585 19.3186C9.70011 19.1475 9.57832 17.9327 10.4093 17.5889L23.5165 12.1699C23.7398 12.077 23.9838 12.0454 24.2235 12.0782C24.4631 12.111 24.6896 12.2072 24.8796 12.3567C25.0697 12.5063 25.2165 12.7038 25.3048 12.9289C25.393 13.1541 25.4197 13.3987 25.3819 13.6376" fill="#21243D"/>
<path fill-rule="evenodd" clip-rule="evenodd" d="M18.5 2.63007C9.73567 2.63007 2.63013 9.73561 2.63013 18.5C2.63013 27.2644 9.73567 34.3699 18.5 34.3699C27.2644 34.3699 34.37 27.2644 34.37 18.5C34.37 9.73561 27.2644 2.63007 18.5 2.63007ZM5.34963 18.5C5.34963 16.773 5.68977 15.063 6.35064 13.4675C7.01151 11.8721 7.98017 10.4224 9.2013 9.20123C10.4224 7.9801 11.8721 7.01145 13.4676 6.35058C15.0631 5.68971 16.7731 5.34957 18.5 5.34957C20.227 5.34957 21.937 5.68971 23.5325 6.35058C25.128 7.01145 26.5777 7.9801 27.7988 9.20123C29.0199 10.4224 29.9886 11.8721 30.6494 13.4675C31.3103 15.063 31.6505 16.773 31.6505 18.5C31.6505 21.9877 30.265 25.3326 27.7988 27.7987C25.3326 30.2649 21.9878 31.6504 18.5 31.6504C15.0123 31.6504 11.6675 30.2649 9.2013 27.7987C6.73511 25.3326 5.34963 21.9877 5.34963 18.5Z" fill="#21243D"/>
</svg>
